<?xml version="1.0" encoding="UTF-8" standalone="no"?>
<!DOCTYPE svg PUBLIC "-//W3C//DTD SVG 1.1//EN" "http://www.w3.org/Graphics/SVG/1.1/DTD/svg11.dtd">
<svg width="100%" height="100%" viewBox="0 0 2600 1940" version="1.1" xmlns="http://www.w3.org/2000/svg" xmlns:xlink="http://www.w3.org/1999/xlink" xml:space="preserve" xmlns:serif="http://www.serif.com/" style="fill-rule:evenodd;clip-rule:evenodd;stroke-linejoin:round;stroke-miterlimit:2;">
    <g id="Layer_3" transform="matrix(1,0,0,1,-212,-560)">
        <rect x="-82.17" y="-82.17" width="3164.34" height="3164.34" style="fill:white;fill-opacity:0;"/>
        <g>
            <g>
                <g>
                    <path d="M1127.93,1518.39L1123.9,1518.58C1129.77,1518.58 1135.75,1518.74 1141.88,1519.17C1137.41,1518.45 1132.75,1518.16 1127.93,1518.39Z" style="fill:none;fill-rule:nonzero;"/>
                    <path d="M1778.03,1497.97C1756.1,1568.39 1650.47,1649.77 1650.47,1649.77C1675.29,1645.73 1714.15,1648.42 1714.15,1648.42C1714.15,1648.42 1698.95,1686.13 1654.51,1712.1C1573.57,1759.4 1564.86,1633.42 1564.86,1633.42L1533.78,1351.15L1615.47,1351.15C1622.16,1369.17 1639.46,1382.03 1659.8,1382.03C1685.94,1382.03 1707.13,1360.84 1707.13,1334.7C1707.13,1308.56 1685.94,1287.37 1659.8,1287.37C1639.45,1287.37 1622.16,1300.23 1615.47,1318.25L1530.16,1318.25L1523.57,1258.44C1556.66,1248.39 1580.75,1217.65 1580.75,1181.28C1580.75,1136.74 1544.65,1100.64 1500.11,1100.64C1455.57,1100.64 1419.47,1136.74 1419.47,1181.28C1419.47,1218.06 1444.11,1249.07 1477.77,1258.76L1471.22,1318.25L1385.91,1318.25C1379.22,1300.23 1361.92,1287.37 1341.58,1287.37C1315.44,1287.37 1294.25,1308.56 1294.25,1334.7C1294.25,1360.84 1315.44,1382.03 1341.58,1382.03C1361.93,1382.03 1379.22,1369.17 1385.91,1351.15L1467.6,1351.15L1436.52,1633.42C1436.52,1633.42 1427.82,1759.41 1346.87,1712.1C1302.43,1686.13 1287.23,1648.42 1287.23,1648.42C1287.23,1648.42 1326.09,1645.73 1350.91,1649.77C1350.91,1649.77 1245.29,1568.39 1223.35,1497.97C1223.35,1497.97 1166.79,1617.45 1193.34,1713.84C1193.34,1713.84 1209.79,1689.02 1225.66,1680.07C1225.66,1680.07 1252.21,1796.37 1350.91,1846.01C1446.29,1893.98 1488.62,1888.91 1500.69,1935.97C1512.76,1888.9 1555.09,1893.98 1650.47,1846.01C1749.17,1796.37 1775.72,1680.07 1775.72,1680.07C1791.59,1689.02 1808.04,1713.84 1808.04,1713.84C1834.59,1617.45 1778.03,1497.97 1778.03,1497.97ZM1641.01,1303.11C1646.21,1298.33 1668.24,1294.53 1680.65,1303.62C1681.11,1305.71 1680.71,1307.69 1679.32,1309.32C1677.93,1310.95 1676.01,1312.05 1674.02,1312.85C1669.03,1314.84 1663.53,1315.11 1658.17,1314.96C1652.8,1314.81 1647.42,1314.28 1642.08,1314.78C1636.74,1315.28 1631.12,1316.18 1627.17,1319.82C1631.67,1309.97 1638.38,1305.53 1641.01,1303.11ZM1321.46,1325.95C1315.75,1334.27 1311.51,1341.25 1309.52,1352.74C1304.71,1345.21 1303.41,1334.43 1305.32,1325.71C1307.24,1316.98 1312.73,1309.1 1320.26,1304.28C1324.86,1301.34 1341.98,1289.38 1364.73,1305.25C1363.11,1305.63 1337.93,1301.95 1321.46,1325.95ZM1346.99,1768.48C1223.65,1711.87 1231.61,1551.48 1231.61,1551.48C1235.12,1582.22 1281.66,1756.55 1393.05,1742.12C1410.83,1739.82 1428.55,1723.36 1433.11,1717.09C1427.71,1735.2 1398.13,1791.95 1346.99,1768.48ZM1562.86,1148.65C1581.53,1183.01 1563.72,1230.11 1525.65,1239.4C1553.89,1221.15 1565.29,1184.56 1549.93,1155.39C1535.36,1125.95 1497.19,1114.33 1467.22,1127C1496.57,1101.05 1545.98,1114.01 1562.86,1148.65ZM1500.11,1216.68C1480.56,1216.68 1464.71,1200.83 1464.71,1181.28C1464.71,1161.73 1480.56,1145.88 1500.11,1145.88C1519.66,1145.88 1535.51,1161.73 1535.51,1181.28C1535.51,1200.83 1519.67,1216.68 1500.11,1216.68ZM1767.06,1636.5C1737.05,1791.76 1610.22,1782.71 1564.47,1810.23C1515.22,1839.86 1501.27,1880.84 1501.27,1880.84L1501.27,1352.74L1520.22,1373.13L1540.23,1655.55C1542.54,1686.14 1554.47,1710.47 1571.19,1730.57C1581.31,1742.73 1613.82,1756.27 1645.85,1744.44C1761.96,1701.55 1771.68,1541.85 1771.68,1541.85C1793.04,1582.25 1801.12,1679.22 1801.12,1679.22L1767.06,1636.5Z" style="fill:rgb(14,34,91);fill-rule:nonzero;"/>
                    <path d="M1896.96,1311.96L2273.96,1161.2L1873.36,1222.34C1820.07,1224.37 1786.5,1165.63 1815.29,1120.75L2110.9,774L1750.04,1054.94C1704.9,1083.34 1646.47,1049.26 1648.96,995.99L1725.63,549.33L1559.55,971.6C1546.95,995.48 1523.38,1007.17 1500,1006.76C1476.63,1007.17 1453.06,995.48 1440.45,971.6L1274.36,549.31L1351.03,995.97C1353.52,1049.24 1295.08,1083.32 1249.95,1054.92L889.1,773.99L1184.71,1120.74C1213.5,1165.63 1179.93,1224.36 1126.64,1222.33L726.04,1161.19L1103.04,1311.95C1150.42,1336.43 1150.71,1404.08 1103.55,1428.97L835.78,1558.29L1123.9,1518.57L1127.93,1518.38C1132.75,1518.16 1137.41,1518.44 1141.88,1519.16C1153.38,1520.37 1163.48,1522.15 1173.22,1524.82C1181.55,1500.09 1189.07,1483.98 1189.94,1482.15C1193.57,1474.48 1199.63,1468.5 1206.9,1464.89C1205.3,1460 1203.79,1455.06 1202.42,1450.05C1157.51,1285.32 1254.65,1115.38 1419.38,1070.47C1446.31,1063.13 1473.37,1059.61 1500,1059.53C1526.64,1059.61 1553.7,1063.13 1580.62,1070.47C1745.35,1115.38 1842.48,1285.32 1797.58,1450.05C1796.27,1454.87 1794.81,1459.61 1793.29,1464.3C1801.1,1467.84 1807.61,1474.06 1811.44,1482.15C1812.31,1483.98 1819.76,1499.95 1828.04,1524.48C1837.39,1522 1847.11,1520.32 1858.11,1519.16C1862.58,1518.44 1867.24,1518.16 1872.06,1518.38L1876.09,1518.57L2164.21,1558.29L1896.44,1428.97C1849.29,1404.08 1849.58,1336.44 1896.96,1311.96Z" style="fill:url(#_Linear1);fill-rule:nonzero;"/>
                    <g>
                        <path d="M1617.72,1181.28C1617.72,1222.57 1596.71,1259.52 1563.21,1280.64L1563.28,1281.28L1594.69,1281.28C1610.44,1262.16 1634.24,1250.4 1659.8,1250.4C1706.28,1250.4 1744.1,1288.22 1744.1,1334.7C1744.1,1381.18 1706.28,1419 1659.8,1419C1634.25,1419 1610.44,1407.25 1594.69,1388.12L1575.04,1388.12L1599.86,1613.53C1696.22,1574.35 1764.16,1479.81 1764.16,1369.38C1764.16,1260.72 1698.37,1167.43 1604.46,1127.14C1612.92,1143.36 1617.72,1161.76 1617.72,1181.28Z" style="fill:url(#_Linear2);fill-rule:nonzero;"/>
                        <path d="M1401.52,1613.53L1426.34,1388.12L1406.69,1388.12C1390.94,1407.24 1367.14,1419 1341.58,1419C1295.1,1419 1257.28,1381.18 1257.28,1334.7C1257.28,1288.22 1295.1,1250.4 1341.58,1250.4C1367.13,1250.4 1390.94,1262.15 1406.69,1281.28L1438.1,1281.28L1438.11,1281.16C1404.3,1260.05 1382.5,1222.42 1382.5,1181.27C1382.5,1162.01 1387.18,1143.84 1395.42,1127.78C1302.3,1168.41 1237.21,1261.28 1237.21,1369.37C1237.21,1479.81 1305.16,1574.35 1401.52,1613.53Z" style="fill:url(#_Linear3);fill-rule:nonzero;"/>
                    </g>
                </g>
            </g>
            <g>
                <g>
                    <path d="M302.3,2206.2C285.97,2206.2 272.54,2201.94 262.03,2193.4C251.51,2184.87 245.15,2173.54 242.94,2159.42L270.75,2152.58C272.37,2162 276.08,2169.06 281.89,2173.76C287.7,2178.47 294.87,2180.82 303.41,2180.82C307.97,2180.82 312.05,2180.05 315.66,2178.5C319.26,2176.95 322.13,2174.68 324.27,2171.66C326.4,2168.65 327.47,2165.08 327.47,2160.96C327.47,2157.14 326.37,2153.83 324.16,2151.03C321.95,2148.24 318.61,2145.66 314.12,2143.31C309.63,2140.96 304,2138.53 297.24,2136.03C287.53,2132.21 279.4,2128.12 272.86,2123.78C266.31,2119.44 261.42,2114.4 258.18,2108.66C254.94,2102.92 253.33,2096.16 253.33,2088.36C253.33,2080.12 255.35,2072.84 259.4,2066.51C263.44,2060.18 269.11,2055.18 276.39,2051.5C283.67,2047.83 292.17,2045.98 301.88,2045.98C312.18,2045.98 321.33,2048.37 329.35,2053.15C337.37,2057.93 343.8,2065.03 348.66,2074.44L325.93,2088.34C322.84,2082.75 319.2,2078.52 315.01,2075.65C310.82,2072.78 306.14,2071.35 301,2071.35C297.32,2071.35 294.05,2072.05 291.18,2073.45C288.31,2074.85 286.03,2076.76 284.34,2079.19C282.65,2081.62 281.8,2084.45 281.8,2087.69C281.8,2091.08 282.79,2094.09 284.78,2096.74C286.77,2099.39 290,2101.93 294.49,2104.35C298.98,2106.78 304.82,2109.32 312.03,2111.96C321.59,2115.49 329.57,2119.39 335.97,2123.66C342.37,2127.93 347.26,2132.89 350.64,2138.56C354.02,2144.22 355.72,2151.1 355.72,2159.19C355.72,2168.32 353.48,2176.44 348.99,2183.58C344.5,2190.72 338.29,2196.27 330.34,2200.24C322.38,2204.22 313.04,2206.2 302.3,2206.2Z" style="fill:rgb(120,197,31);fill-rule:nonzero;"/>
                    <path d="M457.35,2206.87C442.79,2206.87 429.95,2203.52 418.84,2196.83C407.73,2190.14 399.09,2180.76 392.91,2168.69C386.73,2156.63 383.64,2142.58 383.64,2126.54C383.64,2110.36 386.73,2096.23 392.91,2084.17C399.09,2072.11 407.73,2062.73 418.84,2056.03C429.95,2049.34 442.78,2045.99 457.35,2045.99C472.06,2045.99 484.97,2049.34 496.08,2056.03C507.19,2062.73 515.83,2072.1 522.01,2084.17C528.19,2096.24 531.28,2110.36 531.28,2126.54C531.28,2142.58 528.15,2156.63 521.9,2168.69C515.64,2180.75 506.97,2190.13 495.86,2196.83C484.74,2203.52 471.91,2206.87 457.35,2206.87ZM457.35,2179.5C466.62,2179.5 474.6,2177.33 481.29,2172.99C487.98,2168.65 493.17,2162.51 496.85,2154.56C500.53,2146.61 502.37,2137.27 502.37,2126.53C502.37,2115.64 500.53,2106.23 496.85,2098.28C493.17,2090.33 487.99,2084.19 481.29,2079.85C474.59,2075.51 466.62,2073.34 457.35,2073.34C448.23,2073.34 440.28,2075.48 433.52,2079.74C426.75,2084.01 421.53,2090.11 417.85,2098.06C414.17,2106.01 412.33,2115.49 412.33,2126.53C412.33,2137.42 414.17,2146.83 417.85,2154.78C421.53,2162.73 426.75,2168.83 433.52,2173.1C440.28,2177.37 448.22,2179.5 457.35,2179.5Z" style="fill:rgb(120,197,31);fill-rule:nonzero;"/>
                    <path d="M567.53,2203.35L567.53,2049.53L596,2049.53L596,2177.75L661.54,2177.75L661.54,2203.35L567.53,2203.35Z" style="fill:rgb(120,197,31);fill-rule:nonzero;"/>
                    <path d="M686.32,2203.34L748.11,2049.53L769.52,2049.53L831.31,2203.34L800.19,2203.34L759.14,2091.68L717.43,2203.34L686.32,2203.34ZM726.93,2173.32L735.76,2147.72L782.1,2147.72L791.37,2173.32L726.93,2173.32Z" style="fill:rgb(120,197,31);fill-rule:nonzero;"/>
                    <path d="M860.68,2203.34L860.68,2049.53L911.44,2049.53C923.94,2049.53 934.02,2051.33 941.67,2054.94C949.32,2058.55 954.94,2063.69 958.55,2070.39C962.15,2077.09 963.96,2084.99 963.96,2094.11C963.96,2108.23 959.95,2119.16 951.93,2126.88C943.91,2134.6 932.47,2138.91 917.61,2139.79C914.22,2139.94 910.77,2140.01 907.24,2140.01L889.14,2140.01L889.14,2203.34L860.68,2203.34ZM889.14,2114.4L908.56,2114.4C913.41,2114.4 917.86,2113.85 921.91,2112.75C925.96,2111.65 929.23,2109.66 931.73,2106.79C934.23,2103.92 935.48,2099.84 935.48,2094.54C935.48,2089.1 934.23,2084.98 931.73,2082.18C929.23,2079.39 925.95,2077.51 921.91,2076.55C917.86,2075.59 913.41,2075.12 908.56,2075.12L889.14,2075.12L889.14,2114.4ZM944.31,2203.34L905.69,2136.7L934.82,2133.17L977.19,2203.35L944.31,2203.35L944.31,2203.34Z" style="fill:rgb(120,197,31);fill-rule:nonzero;"/>
                    <path d="M1001.85,2203.34L1063.64,2049.53L1085.05,2049.53L1146.84,2203.34L1115.72,2203.34L1074.67,2091.68L1032.96,2203.34L1001.85,2203.34ZM1042.45,2173.32L1051.28,2147.72L1097.62,2147.72L1106.89,2173.32L1042.45,2173.32Z" style="fill:rgb(120,197,31);fill-rule:nonzero;"/>
                    <path d="M1191.61,2203.34L1191.61,2075.13L1143.94,2075.13L1143.94,2049.53L1267.96,2049.53L1267.96,2075.13L1220.51,2075.13L1220.51,2203.34L1191.61,2203.34Z" style="fill:rgb(120,197,31);fill-rule:nonzero;"/>
                    <path d="M1359.48,2206.87C1344.92,2206.87 1332.08,2203.52 1320.97,2196.83C1309.86,2190.14 1301.22,2180.76 1295.04,2168.69C1288.86,2156.63 1285.77,2142.58 1285.77,2126.54C1285.77,2110.36 1288.86,2096.23 1295.04,2084.17C1301.22,2072.11 1309.86,2062.73 1320.97,2056.03C1332.08,2049.34 1344.91,2045.99 1359.48,2045.99C1374.19,2045.99 1387.1,2049.34 1398.21,2056.03C1409.32,2062.73 1417.96,2072.1 1424.14,2084.17C1430.32,2096.24 1433.41,2110.36 1433.41,2126.54C1433.41,2142.58 1430.28,2156.63 1424.03,2168.69C1417.77,2180.75 1409.1,2190.13 1397.99,2196.83C1386.87,2203.52 1374.04,2206.87 1359.48,2206.87ZM1359.48,2179.5C1368.75,2179.5 1376.73,2177.33 1383.42,2172.99C1390.11,2168.65 1395.3,2162.51 1398.98,2154.56C1402.66,2146.61 1404.5,2137.27 1404.5,2126.53C1404.5,2115.64 1402.66,2106.23 1398.98,2098.28C1395.3,2090.33 1390.12,2084.19 1383.42,2079.85C1376.72,2075.51 1368.75,2073.34 1359.48,2073.34C1350.36,2073.34 1342.41,2075.48 1335.65,2079.74C1328.88,2084.01 1323.66,2090.11 1319.98,2098.06C1316.3,2106.01 1314.46,2115.49 1314.46,2126.53C1314.46,2137.42 1316.3,2146.83 1319.98,2154.78C1323.66,2162.73 1328.88,2168.83 1335.65,2173.1C1342.41,2177.37 1350.35,2179.5 1359.48,2179.5Z" style="fill:rgb(120,197,31);fill-rule:nonzero;"/>
                    <path d="M1469.66,2203.34L1469.66,2049.53L1520.42,2049.53C1532.92,2049.53 1543,2051.33 1550.65,2054.94C1558.3,2058.55 1563.93,2063.69 1567.53,2070.39C1571.13,2077.09 1572.94,2084.99 1572.94,2094.11C1572.94,2108.23 1568.93,2119.16 1560.91,2126.88C1552.89,2134.6 1541.45,2138.91 1526.59,2139.79C1523.2,2139.94 1519.75,2140.01 1516.22,2140.01L1498.12,2140.01L1498.12,2203.34L1469.66,2203.34ZM1498.13,2114.4L1517.55,2114.4C1522.4,2114.4 1526.85,2113.85 1530.9,2112.75C1534.95,2111.65 1538.22,2109.66 1540.72,2106.79C1543.22,2103.92 1544.47,2099.84 1544.47,2094.54C1544.47,2089.1 1543.22,2084.98 1540.72,2082.18C1538.22,2079.39 1534.95,2077.51 1530.9,2076.55C1526.85,2075.59 1522.4,2075.12 1517.55,2075.12L1498.13,2075.12L1498.13,2114.4ZM1553.3,2203.34L1514.68,2136.7L1543.81,2133.17L1586.18,2203.35L1553.3,2203.35L1553.3,2203.34Z" style="fill:rgb(120,197,31);fill-rule:nonzero;"/>
                    <path d="M1695.19,2203.35L1695.19,2049.53L1797.59,2049.53L1797.59,2075.13L1723.66,2075.13L1723.66,2111.76L1792.73,2111.76L1792.73,2137.14L1723.66,2137.14L1723.66,2177.75L1797.59,2177.75L1797.59,2203.35L1695.19,2203.35Z" style="fill:rgb(120,197,31);fill-rule:nonzero;"/>
                    <path d="M1833.73,2203.35L1833.73,2049.53L1862.2,2049.53L1862.2,2177.75L1927.74,2177.75L1927.74,2203.35L1833.73,2203.35Z" style="fill:rgb(120,197,31);fill-rule:nonzero;"/>
                    <path d="M1957.9,2203.35L1957.9,2049.53L2060.3,2049.53L2060.3,2075.13L1986.37,2075.13L1986.37,2111.76L2055.44,2111.76L2055.44,2137.14L1986.37,2137.14L1986.37,2177.75L2060.3,2177.75L2060.3,2203.35L1957.9,2203.35Z" style="fill:rgb(120,197,31);fill-rule:nonzero;"/>
                    <path d="M2161.46,2206.87C2146.9,2206.87 2134.06,2203.48 2122.95,2196.72C2111.84,2189.96 2103.2,2180.54 2097.02,2168.47C2090.84,2156.41 2087.75,2142.36 2087.75,2126.32C2087.75,2110.29 2090.84,2096.27 2097.02,2084.28C2103.2,2072.29 2111.84,2062.91 2122.95,2056.14C2134.06,2049.37 2146.89,2045.99 2161.46,2045.99C2177.79,2045.99 2191.88,2050.07 2203.72,2058.24C2215.56,2066.4 2224.06,2077.63 2229.21,2091.89L2202.29,2101.82C2199.05,2092.85 2193.94,2085.86 2186.95,2080.86C2179.96,2075.86 2171.47,2073.36 2161.46,2073.36C2152.34,2073.36 2144.36,2075.5 2137.52,2079.76C2130.68,2084.03 2125.45,2090.1 2121.85,2097.97C2118.24,2105.84 2116.44,2115.29 2116.44,2126.33C2116.44,2137.37 2118.24,2146.85 2121.85,2154.8C2125.45,2162.75 2130.68,2168.85 2137.52,2173.12C2144.36,2177.39 2152.34,2179.52 2161.46,2179.52C2171.46,2179.52 2179.96,2177.02 2186.95,2172.02C2193.94,2167.02 2199.05,2160.03 2202.29,2151.06L2229.21,2160.77C2224.06,2175.04 2215.56,2186.3 2203.72,2194.53C2191.87,2202.75 2177.79,2206.87 2161.46,2206.87Z" style="fill:rgb(120,197,31);fill-rule:nonzero;"/>
                    <path d="M2297.68,2203.34L2297.68,2075.13L2250.01,2075.13L2250.01,2049.53L2374.03,2049.53L2374.03,2075.13L2326.58,2075.13L2326.58,2203.34L2297.68,2203.34Z" style="fill:rgb(120,197,31);fill-rule:nonzero;"/>
                    <path d="M2404.2,2203.34L2404.2,2049.53L2454.96,2049.53C2467.46,2049.53 2477.54,2051.33 2485.19,2054.94C2492.84,2058.55 2498.47,2063.69 2502.07,2070.39C2505.67,2077.09 2507.48,2084.99 2507.48,2094.11C2507.48,2108.23 2503.47,2119.16 2495.45,2126.88C2487.43,2134.6 2475.99,2138.91 2461.13,2139.79C2457.74,2139.94 2454.29,2140.01 2450.76,2140.01L2432.66,2140.01L2432.66,2203.34L2404.2,2203.34ZM2432.67,2114.4L2452.09,2114.4C2456.94,2114.4 2461.39,2113.85 2465.44,2112.75C2469.49,2111.65 2472.76,2109.66 2475.26,2106.79C2477.76,2103.92 2479.01,2099.84 2479.01,2094.54C2479.01,2089.1 2477.76,2084.98 2475.26,2082.18C2472.76,2079.39 2469.49,2077.51 2465.44,2076.55C2461.39,2075.59 2456.94,2075.12 2452.09,2075.12L2432.67,2075.12L2432.67,2114.4ZM2487.84,2203.34L2449.22,2136.7L2478.35,2133.17L2520.72,2203.35L2487.84,2203.35L2487.84,2203.34Z" style="fill:rgb(120,197,31);fill-rule:nonzero;"/>
                    <rect x="2550.75" y="2049.53" width="28.47" height="153.81" style="fill:rgb(120,197,31);"/>
                    <path d="M2689.31,2206.87C2674.75,2206.87 2661.91,2203.48 2650.8,2196.72C2639.69,2189.96 2631.05,2180.54 2624.87,2168.47C2618.69,2156.41 2615.6,2142.36 2615.6,2126.32C2615.6,2110.29 2618.69,2096.27 2624.87,2084.28C2631.05,2072.29 2639.69,2062.91 2650.8,2056.14C2661.91,2049.37 2674.74,2045.99 2689.31,2045.99C2705.64,2045.99 2719.73,2050.07 2731.57,2058.24C2743.41,2066.4 2751.91,2077.63 2757.06,2091.89L2730.14,2101.82C2726.9,2092.85 2721.79,2085.86 2714.8,2080.86C2707.81,2075.86 2699.32,2073.36 2689.31,2073.36C2680.19,2073.36 2672.21,2075.5 2665.37,2079.76C2658.53,2084.03 2653.3,2090.1 2649.7,2097.97C2646.09,2105.84 2644.29,2115.29 2644.29,2126.33C2644.29,2137.37 2646.09,2146.85 2649.7,2154.8C2653.3,2162.75 2658.53,2168.85 2665.37,2173.12C2672.21,2177.39 2680.19,2179.52 2689.31,2179.52C2699.31,2179.52 2707.81,2177.02 2714.8,2172.02C2721.79,2167.02 2726.9,2160.03 2730.14,2151.06L2757.06,2160.77C2751.91,2175.04 2743.41,2186.3 2731.57,2194.53C2719.73,2202.75 2705.65,2206.87 2689.31,2206.87Z" style="fill:rgb(120,197,31);fill-rule:nonzero;"/>
                </g>
            </g>
            <g>
                <g>
                    <path d="M242.94,2378.64L1198.36,2378.64L1198.36,2370.89L242.94,2370.89L242.94,2378.64ZM1801.64,2370.9L1801.64,2378.65L2757.06,2378.65L2757.06,2370.9L1801.64,2370.9ZM1332.25,2294.35L1319.63,2294.35L1319.63,2448.7L1403.78,2448.7L1403.78,2437.41L1332.25,2437.41L1332.25,2294.35ZM1453.32,2294.35L1440.69,2294.35L1440.69,2448.7L1524.84,2448.7L1524.84,2437.41L1453.32,2437.41L1453.32,2294.35ZM1587.81,2312.51C1596.37,2307.05 1606.41,2304.32 1617.92,2304.32C1630.47,2304.32 1641.06,2307.35 1649.7,2313.4C1658.34,2319.46 1664.72,2327.72 1668.86,2338.2L1680.37,2333.77C1675.5,2320.93 1667.6,2310.82 1656.68,2303.43C1645.75,2296.05 1632.84,2292.36 1617.93,2292.36C1604.05,2292.36 1591.91,2295.65 1581.5,2302.21C1571.09,2308.78 1562.97,2317.97 1557.14,2329.78C1551.3,2341.59 1548.39,2355.47 1548.39,2371.41C1548.39,2387.36 1551.3,2401.27 1557.14,2413.15C1562.97,2425.04 1571.09,2434.26 1581.5,2440.83C1591.91,2447.4 1604.05,2450.68 1617.93,2450.68C1632.84,2450.68 1645.76,2446.95 1656.68,2439.5C1667.6,2432.05 1675.5,2421.9 1680.37,2409.05L1668.86,2404.84C1664.72,2415.17 1658.34,2423.41 1649.7,2429.53C1641.06,2435.66 1630.47,2438.72 1617.92,2438.72C1606.41,2438.72 1596.36,2435.99 1587.81,2430.53C1579.25,2425.07 1572.64,2417.28 1567.99,2407.17C1563.34,2397.06 1561.01,2385.14 1561.01,2371.41C1561.01,2357.68 1563.34,2345.8 1567.99,2335.76C1572.64,2325.72 1579.25,2317.97 1587.81,2312.51Z" style="fill:url(#_Linear4);fill-rule:nonzero;"/>
                </g>
            </g>
        </g>
    </g>
    <defs>
        <linearGradient id="_Linear1" x1="0" y1="0" x2="1" y2="0" gradientUnits="userSpaceOnUse" gradientTransform="matrix(6.37796e-14,1041.6,-1041.6,6.37796e-14,1500,630.441)"><stop offset="0" style="stop-color:rgb(241,227,66);stop-opacity:1"/><stop offset="1" style="stop-color:rgb(245,92,18);stop-opacity:1"/></linearGradient>
        <linearGradient id="_Linear2" x1="0" y1="0" x2="1" y2="0" gradientUnits="userSpaceOnUse" gradientTransform="matrix(-439.63,-405.504,405.504,-439.63,1783.79,1527.62)"><stop offset="0" style="stop-color:rgb(241,227,66);stop-opacity:1"/><stop offset="1" style="stop-color:rgb(245,92,18);stop-opacity:1"/></linearGradient>
        <linearGradient id="_Linear3" x1="0" y1="0" x2="1" y2="0" gradientUnits="userSpaceOnUse" gradientTransform="matrix(-439.63,-405.504,405.504,-439.63,1679.21,1641)"><stop offset="0" style="stop-color:rgb(241,227,66);stop-opacity:1"/><stop offset="1" style="stop-color:rgb(245,92,18);stop-opacity:1"/></linearGradient>
        <linearGradient id="_Linear4" x1="0" y1="0" x2="1" y2="0" gradientUnits="userSpaceOnUse" gradientTransform="matrix(1695.8,3.2864,-3.2864,1695.8,738.118,2369.82)"><stop offset="0" style="stop-color:rgb(241,227,66);stop-opacity:1"/><stop offset="1" style="stop-color:rgb(245,92,18);stop-opacity:1"/></linearGradient>
    </defs>
</svg>
