<svg xmlns="http://www.w3.org/2000/svg" xmlns:xlink="http://www.w3.org/1999/xlink" viewBox="0,0,256,256" width="48px" height="48px" fill-rule="nonzero"><g fill="none" fill-rule="nonzero" stroke="none" stroke-width="1" stroke-linecap="butt" stroke-linejoin="miter" stroke-miterlimit="10" stroke-dasharray="" stroke-dashoffset="0" font-family="none" font-weight="none" font-size="none" text-anchor="none" style="mix-blend-mode: normal"><g transform="scale(5.33333,5.33333)"><path d="M43.5,36h-1.5v-2c0,0 2,-1.9 2,-5c0,-3.1 -3,-3 -3,-3c0,0 -5.6,2.6 -6.5,8l-2.5,-4h-13l-3,5h-7v1h-4v8.4l1.6,1.6h3.8l0.6,-0.6v0.6h3v-0.6l0.6,0.6h3.8l0.6,-0.6v0.6h24v-3.8l1.5,-4.9l0.4,-1.3z" fill="#003b4f"></path><path d="M24,29h-1l-4,8c0,0 2,3 5,3c3,0 5,-3 5,-3l-4,-8zM40,40h-2.4c-0.6,0 -1.1,-0.3 -1.3,-0.8l-4.4,-8.9c-0.1,-0.2 -0.3,-0.3 -0.4,-0.3h-3.5v-1h3.4c0.6,0 1.1,0.3 1.3,0.8l4.4,8.9c0.1,0.2 0.3,0.3 0.4,0.3h2.5z" fill="#c18706"></path><path d="M43.5,6c0.7,-0.8 1.5,-1.9 1.5,-3c0,-0.5 -0.2,-0.8 -0.5,-1c0,0 -1.9,-0.3 -7.5,4c-5.6,4.3 -5,7 -5,7c0,1.2 1,1.4 1,3c0,1.6 -1.5,3 -3,3c-1.5,0 -6,0 -6,0c0,0 -4.5,0 -6,0c-1.5,0 -3,-1.4 -3,-3c0,-1.6 1,-1.8 1,-3c0,0 0.6,-2.7 -5,-7c-5.6,-4.3 -7.5,-4 -7.5,-4c-0.3,0.2 -0.5,0.5 -0.5,1c0,1.1 0.8,2.2 1.5,3c-0.3,0 -0.5,0.4 -0.4,0.7c0.1,0.3 1.4,1 1.7,1.1c-0.2,-0.1 -0.5,0.5 -0.5,0.7c0,0.4 1.3,1.7 1.5,1.6c-0.1,0 -0.3,0.1 -0.4,0.1c-0.1,0.1 -0.2,0.2 -0.2,0.4c0,0.1 0.1,0.2 0.2,0.2c0.2,0.2 0.5,0.3 0.7,0.5c-0.3,-0.2 -0.8,0.1 -0.8,0.5c0,0.1 0.1,0.3 0.1,0.4c0.1,0.3 0.3,0.5 0.6,0.6c-0.4,0 -0.9,0.3 -0.9,0.7c0,0.3 0.2,0.5 0.4,0.6c0.2,0.1 0.4,0.2 0.7,0.3c-0.2,0 -0.5,0.1 -0.7,0.3c-0.2,0.2 -0.3,0.4 -0.3,0.7c0.1,0.4 0.6,0.6 1,0.6c-0.3,0.1 -0.7,0.3 -0.7,0.6c-0.1,0.3 0.1,0.6 0.4,0.7c0.3,0.1 0.6,0.1 0.9,0c-0.4,0.2 -0.6,0.6 -0.5,1c0.1,0.4 0.3,0.6 0.7,0.7c0,0.3 0,0.8 0.2,0.9c0.3,0.3 0.8,0.3 1.1,0.2c-0.1,0.2 -0.2,0.4 -0.2,0.7c-0.1,0.3 0,0.5 0.2,0.7c0.3,0.3 0.7,0.2 1,-0.1c-0.2,0.1 -0.2,0.8 0,1c0.2,0.2 0.8,0.1 1,0.1c-0.1,0.2 -0.2,0.7 -0.1,0.9c0,0.1 0.1,0.2 0.2,0.3c0.2,0.3 0.7,-0.1 0.9,-0.2c0,0.2 0,0.5 0.1,0.7c0.1,0.6 1,0.2 1.4,0.1c0,0.4 -0.1,0.8 0.1,1.1c0.3,0.3 0.8,0.2 1.1,-0.1c0,0.2 -0.1,0.8 0.3,0.8c0.1,0 0.2,0 0.2,0c0.4,-0.1 0.7,-0.2 1,-0.4c0.1,0.3 0.1,0.8 0.4,0.9c0.2,0.1 0.5,0 0.7,-0.1c0.2,-0.2 0.4,-0.4 0.6,-0.6l6,2l6,-2c0.1,0.2 0.4,0.5 0.6,0.6c0.2,0.2 0.5,0.3 0.7,0.1c0.3,-0.2 0.3,-0.6 0.4,-0.9c0.3,0.2 0.7,0.3 1,0.4c0.1,0 0.2,0 0.2,0c0.3,-0.1 0.2,-0.6 0.3,-0.8c0.3,0.3 0.8,0.4 1.1,0.1c0.3,-0.3 0.1,-0.8 0.1,-1.1c0.4,0.1 1.3,0.5 1.4,-0.1c0.1,-0.2 0,-0.5 0.1,-0.7c0.2,0.1 0.7,0.5 0.9,0.2c0.1,-0.1 0.1,-0.2 0.2,-0.3c0.1,-0.2 -0.1,-0.6 -0.1,-0.9c0.3,0 0.8,0.1 1,-0.1c0.2,-0.2 0.2,-0.9 0,-1c0.3,0.2 0.7,0.3 1,0.1c0.2,-0.2 0.2,-0.5 0.2,-0.7c-0.1,-0.2 -0.1,-0.5 -0.2,-0.7c0.3,0 0.8,0.1 1.1,-0.2c-0.2,-0.1 -0.2,-0.6 -0.2,-0.9c0.4,-0.1 0.7,-0.4 0.8,-0.7c0.1,-0.3 -0.1,-0.8 -0.5,-1c0.3,0.1 0.6,0.1 0.9,0c0.3,-0.1 0.5,-0.4 0.4,-0.7c-0.1,-0.3 -0.4,-0.5 -0.7,-0.6c0.4,-0.1 0.9,-0.2 1,-0.6c0.1,-0.2 -0.1,-0.5 -0.3,-0.7c-0.2,-0.2 -0.4,-0.2 -0.7,-0.3c0.2,-0.1 0.5,-0.1 0.7,-0.3c0.2,-0.1 0.4,-0.4 0.4,-0.6c0,-0.4 -0.4,-0.7 -0.9,-0.7c0.2,-0.2 0.4,-0.4 0.6,-0.6c0.1,-0.1 0.1,-0.2 0.1,-0.4c0,-0.4 -0.4,-0.6 -0.8,-0.5c0.3,-0.1 0.5,-0.3 0.7,-0.5c0.1,-0.1 0.1,-0.1 0.2,-0.2c0,-0.1 0,-0.3 -0.2,-0.4c-0.1,-0.1 -0.3,-0.1 -0.4,-0.1c0.1,0 1.4,-1.2 1.5,-1.6c0,-0.2 -0.3,-0.7 -0.5,-0.6c0.3,-0.2 1.6,-0.8 1.7,-1.1c0,-0.4 -0.2,-0.8 -0.5,-0.8z" fill="#dd9f05"></path><path d="M29,20c0,0 0.4,0.2 0.7,0.6c0.4,0.4 0.7,1 1,1.6c0.3,0.6 0.4,1.3 0.4,1.8c0,0.5 -0.1,0.9 -0.1,0.9c0,0 -0.4,-0.2 -0.7,-0.6c-0.4,-0.4 -0.7,-1 -1,-1.6c-0.3,-0.6 -0.4,-1.3 -0.4,-1.8c0,-0.5 0.1,-0.9 0.1,-0.9z" fill="#c18706"></path><path d="M20,12c0,0 0,-2 2,-2c0,0 0.5,-1 2,-1c0,0 3,0.5 3,2h-1v1c0.5,1.4 2,3.9 2,6v1h-8v-1c0,-2.5 2,-3.8 2,-5c0,-1.1 0,-1 0,-1z" fill="#dd9f05"></path><path d="M27,11c0,-1.5 -3,-2 -3,-2c-1.5,0 -2,1 -2,1l1,1l-1,1c0,0 0,0.1 0,1c0,0.5 -0.4,1 -0.8,1.6c0.2,0.2 0.4,0.4 0.8,0.4c0.6,0 1,-0.4 1,-1c0,0.6 0.4,1 1,1c0.6,0 1,-0.4 1,-1c0,0.6 0.4,1 1,1c0.5,0 0.8,-0.3 1,-0.8c-0.4,-0.9 -0.8,-1.6 -1,-2.2c0,0 0,-1 1,-1z" fill="#ffc107"></path><path d="M9,34h25v1h-25zM35,34h6v1h-6z" fill="#dd9f05"></path><path d="M11.7,38c0,0 -1.5,-0.6 -1.7,-3v-1c0.2,-2.4 1.7,-3 1.7,-3l1.3,1l3,-4h-5c0,0 0,0.5 0,1.6c-1.2,0.6 -2,1.6 -2.5,2.8c-0.1,0.3 -0.2,0.5 -0.3,0.8c-0.2,0.5 -0.3,0.9 -0.8,1.1l-0.3,0.2c0.3,0.2 0.6,0.3 0.8,0.5c0.4,0.5 0.5,1.2 0.7,1.7c0.2,0.5 0.5,1 0.9,1.5c0.4,0.5 0.9,0.9 1.5,1.2c0,1 0,1.6 0,1.6h5l-3,-4zM18,30l-2,4h1l3,-4zM30,30l2,4h-1l-3,-4zM19,20c0,0 0.1,0.4 0.1,0.9c0,0.5 -0.1,1.2 -0.4,1.8c-0.2,0.6 -0.6,1.2 -1,1.6c-0.3,0.5 -0.7,0.7 -0.7,0.7c0,0 -0.1,-0.4 -0.1,-0.9c0,-0.5 0.1,-1.2 0.4,-1.8c0.2,-0.6 0.6,-1.2 1,-1.6c0.3,-0.5 0.7,-0.7 0.7,-0.7zM17,20c0,0 0,0.4 -0.1,0.9c-0.1,0.5 -0.4,1.1 -0.8,1.6c-0.4,0.5 -0.9,0.9 -1.3,1.2c-0.4,0.2 -0.8,0.3 -0.8,0.3c0,0 0,-0.4 0.1,-0.9c0.1,-0.5 0.4,-1.1 0.8,-1.6c0.4,-0.5 0.9,-0.9 1.3,-1.2c0.4,-0.2 0.8,-0.3 0.8,-0.3zM16,19c0,0 -0.2,0.4 -0.6,0.8c-0.4,0.4 -0.9,0.9 -1.6,1.3c-0.6,0.4 -1.3,0.6 -1.9,0.8c-0.5,0.1 -0.9,0.1 -0.9,0.1c0,0 0.2,-0.4 0.6,-0.8c0.4,-0.4 0.9,-0.9 1.6,-1.3c0.6,-0.4 1.3,-0.6 1.9,-0.8c0.5,-0.1 0.9,-0.1 0.9,-0.1zM14,18c0,0 -0.3,0.3 -0.7,0.6c-0.4,0.3 -1,0.5 -1.7,0.7c-0.6,0.1 -1.3,0.1 -1.8,0c-0.4,-0.1 -0.8,-0.3 -0.8,-0.3c0,0 0.3,-0.3 0.7,-0.6c0.4,-0.3 1,-0.5 1.7,-0.7c0.6,-0.1 1.3,-0.1 1.8,0c0.4,0.1 0.8,0.3 0.8,0.3zM8,16c0,0 0.4,-0.3 0.9,-0.4c0.6,-0.2 1.3,-0.3 2.1,-0.3c0.8,0 1.5,0.1 2.1,0.3c0.5,0.1 0.9,0.4 0.9,0.4c0,0 -0.4,0.3 -0.9,0.4c-0.6,0.2 -1.3,0.3 -2.1,0.3c-0.8,0 -1.5,-0.1 -2.1,-0.3c-0.5,-0.1 -0.9,-0.4 -0.9,-0.4zM14,14c0,0 -0.5,0.1 -1.1,0.1c-0.6,0 -1.4,-0.1 -2.2,-0.4c-0.8,-0.2 -1.5,-0.6 -2,-1c-0.4,-0.3 -0.7,-0.7 -0.7,-0.7c0,0 0.5,-0.1 1.1,-0.1c0.6,0 1.4,0.1 2.2,0.4c0.8,0.2 1.5,0.6 2,1c0.4,0.3 0.7,0.7 0.7,0.7zM14,12c0,0 -0.6,-0.1 -1.5,-0.4c-0.9,-0.3 -1.9,-0.8 -2.9,-1.4c-1,-0.6 -1.9,-1.4 -2.6,-2c-0.6,-0.7 -1,-1.2 -1,-1.2c0,0 0.6,0.1 1.5,0.4c0.9,0.3 1.9,0.8 2.9,1.4c1,0.6 1.9,1.4 2.6,2c0.6,0.7 1,1.2 1,1.2zM31,20c0,0 0.4,0.1 0.8,0.4c0.4,0.3 0.9,0.7 1.3,1.2c0.4,0.5 0.6,1.1 0.8,1.6c0.1,0.4 0.1,0.8 0.1,0.8c0,0 -0.4,-0.1 -0.8,-0.4c-0.4,-0.3 -0.9,-0.7 -1.3,-1.2c-0.4,-0.5 -0.6,-1.1 -0.8,-1.6c-0.1,-0.4 -0.1,-0.8 -0.1,-0.8zM32,19c0,0 0.4,0 1,0.1c0.6,0.1 1.3,0.4 1.9,0.8c0.6,0.4 1.2,0.9 1.6,1.3c0.3,0.4 0.5,0.8 0.5,0.8c0,0 -0.4,0 -1,-0.1c-0.6,-0.1 -1.3,-0.4 -1.9,-0.8c-0.6,-0.4 -1.2,-0.9 -1.6,-1.3c-0.3,-0.4 -0.5,-0.8 -0.5,-0.8zM34,18c0,0 0.4,-0.2 0.9,-0.3c0.5,-0.1 1.2,-0.1 1.8,0c0.6,0.1 1.2,0.4 1.7,0.7c0.3,0.3 0.6,0.6 0.6,0.6c0,0 -0.4,0.2 -0.9,0.3c-0.5,0.1 -1.2,0.1 -1.8,0c-0.6,-0.1 -1.2,-0.4 -1.7,-0.7c-0.3,-0.3 -0.6,-0.6 -0.6,-0.6zM40,16c0,0 -0.4,0.3 -0.9,0.4c-0.6,0.2 -1.3,0.3 -2.1,0.3c-0.8,0 -1.5,-0.1 -2.1,-0.3c-0.5,-0.1 -0.9,-0.4 -0.9,-0.4c0,0 0.4,-0.3 0.9,-0.4c0.6,-0.2 1.3,-0.3 2.1,-0.3c0.8,0 1.5,0.1 2.1,0.3c0.5,0.2 0.9,0.4 0.9,0.4zM34,14c0,0 0.3,-0.4 0.8,-0.7c0.5,-0.4 1.2,-0.7 2,-1c0.8,-0.3 1.5,-0.4 2.2,-0.4c0.6,0 1.1,0.1 1.1,0.1c0,0 -0.3,0.4 -0.8,0.7c-0.5,0.4 -1.2,0.7 -2,1c-0.8,0.3 -1.5,0.4 -2.2,0.4c-0.6,0 -1.1,-0.1 -1.1,-0.1zM34,12c0,0 0.4,-0.5 1,-1.1c0.6,-0.6 1.6,-1.4 2.6,-2c1,-0.6 2.1,-1.1 2.9,-1.4c0.9,-0.4 1.5,-0.5 1.5,-0.5c0,0 -0.4,0.5 -1,1.1c-0.6,0.6 -1.6,1.4 -2.6,2c-1,0.6 -2.1,1.1 -2.9,1.4c-0.9,0.4 -1.5,0.5 -1.5,0.5z" fill="#c18706"></path><path d="M16.5,35c-0.3,0 -0.5,-0.2 -0.5,-0.5v-1c0,-0.3 0.2,-0.5 0.5,-0.5c0.3,0 0.5,0.2 0.5,0.5v1c0,0.3 -0.2,0.5 -0.5,0.5zM15.5,35c-0.3,0 -0.5,-0.2 -0.5,-0.5v-1c0,-0.3 0.2,-0.5 0.5,-0.5c0.3,0 0.5,0.2 0.5,0.5v1c0,0.3 -0.2,0.5 -0.5,0.5zM17.5,35c0.3,0 0.5,-0.2 0.5,-0.5v-1c0,-0.3 -0.2,-0.5 -0.5,-0.5c-0.3,0 -0.5,0.2 -0.5,0.5v1c0,0.3 0.2,0.5 0.5,0.5zM31.5,35c-0.3,0 -0.5,-0.2 -0.5,-0.5v-1c0,-0.3 0.2,-0.5 0.5,-0.5c0.3,0 0.5,0.2 0.5,0.5v1c0,0.3 -0.2,0.5 -0.5,0.5zM30.5,35c-0.3,0 -0.5,-0.2 -0.5,-0.5v-1c0,-0.3 0.2,-0.5 0.5,-0.5c0.3,0 0.5,0.2 0.5,0.5v1c0,0.3 -0.2,0.5 -0.5,0.5zM32.5,35c0.3,0 0.5,-0.2 0.5,-0.5v-1c0,-0.3 -0.2,-0.5 -0.5,-0.5c-0.3,0 -0.5,0.2 -0.5,0.5v1c0,0.3 0.2,0.5 0.5,0.5z" fill="#ffc107"></path><path d="M25,10c0,0 -1.2,1 -1.5,1c-0.3,0 -0.5,-0.2 -0.5,-0.5c0,-0.3 0.2,-0.5 0.5,-0.5c0.3,0 1.5,0 1.5,0z" fill="#c18706"></path><path d="M43,34.5c0,0.8 -0.7,1.5 -1.5,1.5c-0.8,0 -1.5,-0.7 -1.5,-1.5c0,-0.8 0.7,-1.5 1.5,-1.5c0.8,0 1.5,0.7 1.5,1.5zM17,18.8c-1.1,-0.4 -2,-1.5 -2,-2.8c0,-1.6 1,-1.8 1,-3c0,0 0.6,-2.7 -5,-7c-0.5,0 -1.5,0.1 -0.7,1.3c0.2,0.3 0.5,0.7 0.7,1c0.9,0.9 1.9,2 1.9,3.3c0,2.1 0,2.8 0,5.5c0,1.6 1.6,3.5 4,3.9v-2.2zM37,6c-5.6,4.3 -5,7 -5,7c0,1.2 1,1.4 1,3c0,1.3 -0.9,2.4 -2,2.8v2.1c2.4,-0.4 4,-2.3 4,-3.9c0,-2.6 0,-3.3 0,-5.5c0,-1.3 1,-2.4 1.9,-3.3c0.3,-0.3 0.5,-0.7 0.7,-1c0.9,-1.1 -0.1,-1.2 -0.6,-1.2zM18,18v12l6,3l6,-3v-12z" fill="#ffc107"></path><path d="M18,22h12v1h-12z" fill="#dd9f05"></path><path d="M25,32.5l1,-0.5v-10h-1zM28,31l1,-0.5v-8.5h-1zM19,30.5l1,0.5v-9h-1zM22,32l1,0.5v-10.5h-1z" fill="#dd9f05"></path><path d="M32.8,42l-0.7,-0.7c0.9,-0.8 1.1,-2.1 1.4,-4.3c0.1,-0.8 0.3,-1.7 0.5,-2.7l1,0.2c-0.2,1 -0.3,1.9 -0.5,2.7c-0.3,2.3 -0.6,3.8 -1.7,4.8z" fill="#c18706"></path><path d="M41.5,35c-0.2,0 -0.3,-0.1 -0.4,-0.2c-0.1,-0.2 -0.1,-0.5 0.2,-0.7c0.1,0 1.8,-1.2 1.8,-5.1c0,-0.9 -0.2,-1.5 -0.7,-1.8c-0.8,-0.5 -2.3,0 -2.8,0.2c0,0 -3.4,1.9 -4.5,7.1c-0.1,0.3 -0.3,0.4 -0.6,0.4c-0.3,-0.1 -0.4,-0.3 -0.4,-0.6c1.1,-5.6 4.8,-7.7 5,-7.8c0.1,-0.1 2.3,-1.1 3.8,-0.2c0.8,0.5 1.2,1.4 1.2,2.6c0,4.5 -2.1,5.9 -2.2,5.9c-0.2,0.2 -0.3,0.2 -0.4,0.2z" fill="#dd9f05"></path><path d="M34.5,33c-0.8,0 -1.5,0.7 -1.5,1.5c0,0.8 0.7,1.5 1.5,1.5c0.8,0 1.5,-0.7 1.5,-1.5c0,-0.8 -0.7,-1.5 -1.5,-1.5zM34.5,35c-0.3,0 -0.5,-0.2 -0.5,-0.5c0,-0.3 0.2,-0.5 0.5,-0.5c0.3,0 0.5,0.2 0.5,0.5c0,0.3 -0.2,0.5 -0.5,0.5z" fill="#dd9f05"></path><path d="M34.7,35c0.3,-0.1 0.4,-0.4 0.2,-0.7l-2.2,-4.5c-0.2,-0.5 -0.7,-0.8 -1.3,-0.8h-1.4v1h1.4c0.2,0 0.4,0.1 0.4,0.3l2.2,4.4c0.2,0.3 0.5,0.4 0.7,0.3z" fill="#ffc107"></path><path d="M30,29h1v1h-1z" fill="#dd9f05"></path><path d="M8,37h-2v7l1,1h3l1,-1v-7h-2v7h-1zM14,38l1,-1h3l1,1v2h-2v-2h-1v2l3,2v2l-1,1h-3l-1,-1v-2h2v2h1v-2l-3,-2zM22,37v8h2v-4l1,4h2v-8h-2v4l-1,-4zM33,37l1.5,8h2l1.5,-8h-2l-0.5,4l-0.5,-4zM31,45h2l-1.5,-8h-2l-1.5,8h2l0.1,-1h0.8zM30.2,43l0.3,-2.9l0.3,2.9zM12,44h1v1h-1zM20,44h1v1h-1zM41.5,37l-0.5,3l-0.5,-3h-2l1.5,5v3h2v-3l1.5,-5z" fill="#ffc107"></path></g></g></svg>